{
  "accessors": [
    {
      "bufferView": 2,
      "componentType": 5126,
      "count": 65532,
      "max": [
        7.320731163024902,
        9.839138984680176,
        27.710472106933594
      ],
      "min": [
        -7.764710903167725,
        -2.7086939811706543,
        0.9999970197677612
      ],
      "type": "VEC3"
    },
    {
      "bufferView": 2,
      "byteOffset": 786384,
      "componentType": 5126,
      "count": 65532,
      "max": [
        0.9999994039535522,
        1.0,
        0.9999946355819702
      ],
      "min": [
        -0.9999940395355225,
        -0.999998927116394,
        -0.9999241828918457
      ],
      "type": "VEC3"
    },
    {
      "bufferView": 1,
      "componentType": 5126,
      "count": 65532,
      "max": [
        0.9997730255126953,
        0.8074949979782104
      ],
      "min": [
        0.0,
        0.0
      ],
      "type": "VEC2"
    },
    {
      "bufferView": 0,
      "componentType": 5125,
      "count": 297546,
      "type": "SCALAR"
    },
    {
      "bufferView": 2,
      "byteOffset": 1572768,
      "componentType": 5126,
      "count": 65532,
      "max": [
        7.808456897735596,
        9.586943626403809,
        32.818729400634766
      ],
      "min": [
        -4.054417133331299,
        -1.7567310333251953,
        1.0671440362930298
      ],
      "type": "VEC3"
    },
    {
      "bufferView": 2,
      "byteOffset": 2359152,
      "componentType": 5126,
      "count": 65532,
      "max": [
        0.9999991655349731,
        0.9999113082885742,
        0.9999865293502808
      ],
      "min": [
        -0.9999948740005493,
        -0.9999953508377075,
        -0.9998980760574341
      ],
      "type": "VEC3"
    },
    {
      "bufferView": 1,
      "byteOffset": 524256,
      "componentType": 5126,
      "count": 65532,
      "max": [
        0.9995790123939514,
        0.8074949979782104
      ],
      "min": [
        0.00012199999764561653,
        0.030905000865459442
      ],
      "type": "VEC2"
    },
    {
      "bufferView": 0,
      "byteOffset": 1190184,
      "componentType": 5125,
      "count": 288393,
      "type": "SCALAR"
    },
    {
      "bufferView": 2,
      "byteOffset": 3145536,
      "componentType": 5126,
      "count": 65532,
      "max": [
        7.8218278884887695,
        10.110445976257324,
        30.394861221313477
      ],
      "min": [
        -5.915350914001465,
        -2.196589946746826,
        1.7980660200119019
      ],
      "type": "VEC3"
    },
    {
      "bufferView": 2,
      "byteOffset": 3931920,
      "componentType": 5126,
      "count": 65532,
      "max": [
        0.9999991655349731,
        0.9999938011169434,
        0.9998965263366699
      ],
      "min": [
        -0.9999593496322632,
        -0.9999774694442749,
        -0.9998860359191895
      ],
      "type": "VEC3"
    },
    {
      "bufferView": 1,
      "byteOffset": 1048512,
      "componentType": 5126,
      "count": 65532,
      "max": [
        0.999737024307251,
        0.8077390193939209
      ],
      "min": [
        0.00012199999764561653,
        0.046480998396873474
      ],
      "type": "VEC2"
    },
    {
      "bufferView": 0,
      "byteOffset": 2343756,
      "componentType": 5125,
      "count": 282732,
      "type": "SCALAR"
    },
    {
      "bufferView": 2,
      "byteOffset": 4718304,
      "componentType": 5126,
      "count": 65532,
      "max": [
        7.172513008117676,
        9.837871551513672,
        28.634654998779297
      ],
      "min": [
        -5.829391002655029,
        -2.7345550060272217,
        0.9999979734420776
      ],
      "type": "VEC3"
    },
    {
      "bufferView": 2,
      "byteOffset": 5504688,
      "componentType": 5126,
      "count": 65532,
      "max": [
        1.0,
        1.0,
        1.0
      ],
      "min": [
        -0.9999949932098389,
        -0.9999978542327881,
        -0.9997672438621521
      ],
      "type": "VEC3"
    },
    {
      "bufferView": 1,
      "byteOffset": 1572768,
      "componentType": 5126,
      "count": 65532,
      "max": [
        0.999796986579895,
        0.8077390193939209
      ],
      "min": [
        0.00012199999764561653,
        0.0002739999908953905
      ],
      "type": "VEC2"
    },
    {
      "bufferView": 0,
      "byteOffset": 3474684,
      "componentType": 5125,
      "count": 274470,
      "type": "SCALAR"
    },
    {
      "bufferView": 2,
      "byteOffset": 6291072,
      "componentType": 5126,
      "count": 65532,
      "max": [
        7.807500839233398,
        10.098518371582031,
        28.62657928466797
      ],
      "min": [
        -6.848814010620117,
        -2.7015669345855713,
        1.0133440494537354
      ],
      "type": "VEC3"
    },
    {
      "bufferView": 2,
      "byteOffset": 7077456,
      "componentType": 5126,
      "count": 65532,
      "max": [
        0.9999985694885254,
        0.9999998807907104,
        0.9999961853027344
      ],
      "min": [
        -0.9999840259552002,
        -0.999893307685852,
        -0.999836266040802
      ],
      "type": "VEC3"
    },
    {
      "bufferView": 1,
      "byteOffset": 2097024,
      "componentType": 5126,
      "count": 65532,
      "max": [
        0.999779999256134,
        0.8077390193939209
      ],
      "min": [
        0.00012199999764561653,
        0.0007329999934881926
      ],
      "type": "VEC2"
    },
    {
      "bufferView": 0,
      "byteOffset": 4572564,
      "componentType": 5125,
      "count": 242865,
      "type": "SCALAR"
    },
    {
      "bufferView": 2,
      "byteOffset": 7863840,
      "componentType": 5126,
      "count": 65532,
      "max": [
        7.1586527824401855,
        9.193506240844727,
        30.26554298400879
      ],
      "min": [
        -6.996209144592285,
        -2.1563680171966553,
        1.0068999528884888
      ],
      "type": "VEC3"
    },
    {
      "bufferView": 2,
      "byteOffset": 8650224,
      "componentType": 5126,
      "count": 65532,
      "max": [
        0.9999904632568359,
        0.9999886751174927,
        0.9999946355819702
      ],
      "min": [
        -0.9999943971633911,
        -0.999974250793457,
        -0.9999241828918457
      ],
      "type": "VEC3"
    },
    {
      "bufferView": 1,
      "byteOffset": 2621280,
      "componentType": 5126,
      "count": 65532,
      "max": [
        0.9997010231018066,
        0.8077390193939209
      ],
      "min": [
        0.00012199999764561653,
        0.020697999745607376
      ],
      "type": "VEC2"
    },
    {
      "bufferView": 0,
      "byteOffset": 5544024,
      "componentType": 5125,
      "count": 246159,
      "type": "SCALAR"
    },
    {
      "bufferView": 2,
      "byteOffset": 9436608,
      "componentType": 5126,
      "count": 21125,
      "max": [
        6.994178771972656,
        7.69071102142334,
        30.35207748413086
      ],
      "min": [
        -6.946989059448242,
        -1.0637470483779907,
        1.0086230039596558
      ],
      "type": "VEC3"
    },
    {
      "bufferView": 2,
      "byteOffset": 9690108,
      "componentType": 5126,
      "count": 21125,
      "max": [
        0.9999160766601563,
        0.9998995065689087,
        0.9997099041938782
      ],
      "min": [
        -0.9999940395355225,
        -0.9999616146087646,
        -0.9986934661865234
      ],
      "type": "VEC3"
    },
    {
      "bufferView": 1,
      "byteOffset": 3145536,
      "componentType": 5126,
      "count": 21125,
      "max": [
        0.9996579885482788,
        0.8077390193939209
      ],
      "min": [
        0.00012199999764561653,
        0.00027799999224953353
      ],
      "type": "VEC2"
    },
    {
      "bufferView": 0,
      "byteOffset": 6528660,
      "componentType": 5125,
      "count": 66126,
      "type": "SCALAR"
    },
    {
      "bufferView": 2,
      "byteOffset": 9943608,
      "componentType": 5126,
      "count": 2083,
      "max": [
        6.549750804901123,
        9.075669288635254,
        1.0000009536743164
      ],
      "min": [
        -3.595449924468994,
        -1.0743470191955566,
        0.9999970197677612
      ],
      "type": "VEC3"
    },
    {
      "bufferView": 2,
      "byteOffset": 9968604,
      "componentType": 5126,
      "count": 2083,
      "max": [
        0.06509856134653091,
        0.08019831031560898,
        -0.9665151834487915
      ],
      "min": [
        -0.019400229677557945,
        -0.25660401582717896,
        -1.0
      ],
      "type": "VEC3"
    },
    {
      "bufferView": 1,
      "byteOffset": 3314536,
      "componentType": 5126,
      "count": 2083,
      "max": [
        0.7846360206604004,
        0.6354159712791443
      ],
      "min": [
        0.6869040131568909,
        0.5370110273361206
      ],
      "type": "VEC2"
    },
    {
      "bufferView": 0,
      "byteOffset": 6793164,
      "componentType": 5125,
      "count": 3129,
      "type": "SCALAR"
    }
  ],
  "asset": {
    "extras": {
      "author": "noe-3d.at (https://sketchfab.com/www.noe-3d.at)",
      "license": "CC-BY-NC-4.0 (http://creativecommons.org/licenses/by-nc/4.0/)",
      "source": "https://sketchfab.com/3d-models/muse-c4187171755547d0ad13b018d25c12c9",
      "title": "Muse"
    },
    "generator": "Sketchfab-11.87.0",
    "version": "2.0"
  },
  "bufferViews": [
    {
      "buffer": 0,
      "byteLength": 6805680,
      "name": "floatBufferViews",
      "target": 34963
    },
    {
      "buffer": 0,
      "byteLength": 3331200,
      "byteOffset": 6805680,
      "byteStride": 8,
      "name": "floatBufferViews",
      "target": 34962
    },
    {
      "buffer": 0,
      "byteLength": 9993600,
      "byteOffset": 10136880,
      "byteStride": 12,
      "name": "floatBufferViews",
      "target": 34962
    }
  ],
  "buffers": [
    {
      "byteLength": 20130480,
      "uri": "scene.bin"
    }
  ],
  "images": [
    {
      "uri": "textures/Euterpe_O_Material_u1_v1_baseColor.png"
    }
  ],
  "materials": [
    {
      "doubleSided": true,
      "name": "Euterpe_O_Material_u1_v1",
      "pbrMetallicRoughness": {
        "baseColorTexture": {
          "index": 0
        },
        "metallicFactor": 0.0
      }
    },
    {
      "doubleSided": true,
      "name": "bottom",
      "pbrMetallicRoughness": {
        "baseColorFactor": [
          0.07615931726065679,
          0.07615931726065679,
          0.07615931726065679,
          1.0
        ],
        "metallicFactor": 0.0
      }
    }
  ],
  "meshes": [
    {
      "name": "Object_0",
      "primitives": [
        {
          "attributes": {
            "NORMAL": 1,
            "POSITION": 0,
            "TEXCOORD_0": 2
          },
          "indices": 3,
          "material": 0,
          "mode": 4
        }
      ]
    },
    {
      "name": "Object_1",
      "primitives": [
        {
          "attributes": {
            "NORMAL": 5,
            "POSITION": 4,
            "TEXCOORD_0": 6
          },
          "indices": 7,
          "material": 0,
          "mode": 4
        }
      ]
    },
    {
      "name": "Object_2",
      "primitives": [
        {
          "attributes": {
            "NORMAL": 9,
            "POSITION": 8,
            "TEXCOORD_0": 10
          },
          "indices": 11,
          "material": 0,
          "mode": 4
        }
      ]
    },
    {
      "name": "Object_3",
      "primitives": [
        {
          "attributes": {
            "NORMAL": 13,
            "POSITION": 12,
            "TEXCOORD_0": 14
          },
          "indices": 15,
          "material": 0,
          "mode": 4
        }
      ]
    },
    {
      "name": "Object_4",
      "primitives": [
        {
          "attributes": {
            "NORMAL": 17,
            "POSITION": 16,
            "TEXCOORD_0": 18
          },
          "indices": 19,
          "material": 0,
          "mode": 4
        }
      ]
    },
    {
      "name": "Object_5",
      "primitives": [
        {
          "attributes": {
            "NORMAL": 21,
            "POSITION": 20,
            "TEXCOORD_0": 22
          },
          "indices": 23,
          "material": 0,
          "mode": 4
        }
      ]
    },
    {
      "name": "Object_6",
      "primitives": [
        {
          "attributes": {
            "NORMAL": 25,
            "POSITION": 24,
            "TEXCOORD_0": 26
          },
          "indices": 27,
          "material": 0,
          "mode": 4
        }
      ]
    },
    {
      "name": "Object_7",
      "primitives": [
        {
          "attributes": {
            "NORMAL": 29,
            "POSITION": 28,
            "TEXCOORD_0": 30
          },
          "indices": 31,
          "material": 1,
          "mode": 4
        }
      ]
    }
  ],
  "nodes": [
    {
      "children": [
        1
      ],
      "matrix": [
        1.0,
        0.0,
        0.0,
        0.0,
        0.0,
        2.220446049250313e-16,
        -1.0,
        0.0,
        0.0,
        1.0,
        2.220446049250313e-16,
        0.0,
        0.0,
        0.0,
        0.0,
        1.0
      ],
      "name": "Sketchfab_model"
    },
    {
      "children": [
        2,
        3,
        4,
        5,
        6,
        7,
        8,
        9
      ],
      "name": "Euterpe_CN.obj.cleaner.materialmerger.gles"
    },
    {
      "mesh": 0,
      "name": "Object_2"
    },
    {
      "mesh": 1,
      "name": "Object_3"
    },
    {
      "mesh": 2,
      "name": "Object_4"
    },
    {
      "mesh": 3,
      "name": "Object_5"
    },
    {
      "mesh": 4,
      "name": "Object_6"
    },
    {
      "mesh": 5,
      "name": "Object_7"
    },
    {
      "mesh": 6,
      "name": "Object_8"
    },
    {
      "mesh": 7,
      "name": "Object_9"
    }
  ],
  "samplers": [
    {
      "magFilter": 9729,
      "minFilter": 9987,
      "wrapS": 10497,
      "wrapT": 10497
    }
  ],
  "scene": 0,
  "scenes": [
    {
      "name": "Sketchfab_Scene",
      "nodes": [
        0
      ]
    }
  ],
  "textures": [
    {
      "sampler": 0,
      "source": 0
    }
  ]
}
